<svg id="search" xmlns="http://www.w3.org/2000/svg" width="27.068" height="27.067" viewBox="0 0 27.068 27.067">
  <path id="Path_1" data-name="Path 1" d="M23.332,23.331a1.692,1.692,0,0,1,2.394,0l6.513,6.513a1.692,1.692,0,0,1-2.392,2.394l-6.513-6.513a1.692,1.692,0,0,1,0-2.394Z" transform="translate(-5.667 -5.666)" fill-rule="evenodd"/>
  <path id="Path_2" data-name="Path 2" d="M11,20.3a9.3,9.3,0,1,0-9.3-9.3A9.3,9.3,0,0,0,11,20.3Zm11-9.3A11,11,0,1,1,11,0a11,11,0,0,1,11,11Z" fill-rule="evenodd"/>
</svg>
